<svg xmlns="http://www.w3.org/2000/svg" viewBox="0 0 800 400" preserveAspectRatio="xMidYMid slice">
  <defs>
    <linearGradient id="bg" x1="0" y1="0" x2="1" y2="1">
      <stop offset="0%" stop-color="#4f46e5"/>
      <stop offset="50%" stop-color="#7c3aed"/>
      <stop offset="100%" stop-color="#a855f7"/>
    </linearGradient>
    <radialGradient id="glow" cx="0.7" cy="0.3" r="0.6">
      <stop offset="0%" stop-color="#fff" stop-opacity="0.18"/>
      <stop offset="100%" stop-color="#fff" stop-opacity="0"/>
    </radialGradient>
  </defs>
  <rect width="800" height="400" fill="url(#bg)"/>
  <rect width="800" height="400" fill="url(#glow)"/>
  <g opacity="0.92" transform="translate(560,140)">
    <!-- graduation cap -->
    <path d="M0 40 L80 10 L160 40 L80 70 Z" fill="#fff"/>
    <path d="M40 60 L40 100 Q80 120 120 100 L120 60" stroke="#fff" stroke-width="6" fill="none"/>
    <circle cx="155" cy="50" r="5" fill="#fbbf24"/>
    <line x1="160" y1="40" x2="160" y2="90" stroke="#fbbf24" stroke-width="3"/>
  </g>
  <g opacity="0.7" transform="translate(80,260)">
    <!-- books -->
    <rect x="0" y="0" width="120" height="22" rx="3" fill="#fff"/>
    <rect x="10" y="-22" width="120" height="22" rx="3" fill="#fbbf24"/>
    <rect x="20" y="-44" width="120" height="22" rx="3" fill="#fff"/>
  </g>
  <g opacity="0.45">
    <circle cx="120" cy="80" r="3" fill="#fff"/>
    <circle cx="220" cy="40" r="2" fill="#fff"/>
    <circle cx="350" cy="100" r="2.5" fill="#fff"/>
    <circle cx="700" cy="320" r="3" fill="#fff"/>
    <circle cx="480" cy="350" r="2" fill="#fff"/>
  </g>
</svg>
